<?xml version="1.0" encoding="UTF-8"?>
<svg version="1.1" xmlns="http://www.w3.org/2000/svg" width="270" height="49">
<path d="M0 0 C89.1 0 178.2 0 270 0 C270 16.17 270 32.34 270 49 C180.9 49 91.8 49 0 49 C0 32.83 0 16.66 0 0 Z " fill="#FCFCFC" transform="translate(0,0)"/>
<path d="M0 0 C8.25 0 16.5 0 25 0 C25 7.92 25 15.84 25 24 C16.75 24 8.5 24 0 24 C0 16.08 0 8.16 0 0 Z " fill="#0BB980" transform="translate(99,10)"/>
<path d="M0 0 C8.25 0 16.5 0 25 0 C25 7.92 25 15.84 25 24 C16.75 24 8.5 24 0 24 C0 16.08 0 8.16 0 0 Z " fill="#0BB97F" transform="translate(46,10)"/>
<path d="M0 0 C7.92 0 15.84 0 24 0 C24 7.92 24 15.84 24 24 C16.08 24 8.16 24 0 24 C0 16.08 0 8.16 0 0 Z " fill="#DBDDE5" transform="translate(126,10)"/>
<path d="M0 0 C7.92 0 15.84 0 24 0 C24 7.92 24 15.84 24 24 C16.08 24 8.16 24 0 24 C0 16.08 0 8.16 0 0 Z " fill="#02B67B" transform="translate(73,10)"/>
<path d="M0 0 C7.92 0 15.84 0 24 0 C24 7.92 24 15.84 24 24 C16.08 24 8.16 24 0 24 C0 16.08 0 8.16 0 0 Z " fill="#03B67B" transform="translate(20,10)"/>
<path d="M0 0 C3.96 0 7.92 0 12 0 C11.67 2.97 11.34 5.94 11 9 C9.02 9.66 7.04 10.32 5 11 C5.66 11.598125 6.32 12.19625 7 12.8125 C9 15 9 15 9 18 C9.99 17.67 10.98 17.34 12 17 C12 19.31 12 21.62 12 24 C8.04 24 4.08 24 0 24 C0 16.08 0 8.16 0 0 Z " fill="#06B77D" transform="translate(126,10)"/>
<path d="M0 0 C0.66 0.33 1.32 0.66 2 1 C2.625 3.5625 2.625 3.5625 3 6 C4.98 6 6.96 6 9 6 C8.01 7.485 8.01 7.485 7 9 C6.34 9 5.68 9 5 9 C5.33 11.64 5.66 14.28 6 17 C5.113125 16.443125 4.22625 15.88625 3.3125 15.3125 C1.6728125 14.6628125 1.6728125 14.6628125 0 14 C-2.87391821 15.17274994 -2.87391821 15.17274994 -5 17 C-4.7525 15.9275 -4.505 14.855 -4.25 13.75 C-3.57571378 9.97254504 -3.57571378 9.97254504 -5.9375 7.5625 C-6.618125 7.046875 -7.29875 6.53125 -8 6 C-6.576875 5.9071875 -6.576875 5.9071875 -5.125 5.8125 C-4.09375 5.544375 -3.0625 5.27625 -2 5 C-0.54708727 2.53744315 -0.54708727 2.53744315 0 0 Z " fill="#14B881" transform="translate(171,13)"/>
<path d="M0 0 C2 3 2 3 2 5 C3.98 5 5.96 5 8 5 C7.505 5.7425 7.01 6.485 6.5 7.25 C4.68076525 10.06318188 4.68076525 10.06318188 5 14 C3.9171875 13.4121875 3.9171875 13.4121875 2.8125 12.8125 C-0.06293369 11.64088949 -0.06293369 11.64088949 -2.8125 13.375 C-3.534375 13.91125 -4.25625 14.4475 -5 15 C-4.7525 14.0925 -4.505 13.185 -4.25 12.25 C-3.61740673 8.91162152 -3.61740673 8.91162152 -5.9375 6.625 C-6.618125 6.08875 -7.29875 5.5525 -8 5 C-6.576875 4.87625 -6.576875 4.87625 -5.125 4.75 C-1.89538209 4.34925077 -1.89538209 4.34925077 -0.625 1.9375 C-0.41875 1.298125 -0.2125 0.65875 0 0 Z " fill="#E4F7F1" transform="translate(85,15)"/>
<path d="M0 0 C0.66 0.33 1.32 0.66 2 1 C2 2.32 2 3.64 2 5 C4.31 5 6.62 5 9 5 C5.25 8.875 5.25 8.875 3 10 C3.66 10.33 4.32 10.66 5 11 C5.625 13.0625 5.625 13.0625 6 15 C5.4225 14.649375 4.845 14.29875 4.25 13.9375 C1.58590824 12.82746177 0.67998068 13.1354901 -2 14 C-2.99 14 -3.98 14 -5 14 C-4.34 12.02 -3.68 10.04 -3 8 C-4.32 7.34 -5.64 6.68 -7 6 C-7 5.67 -7 5.34 -7 5 C-5.02 5 -3.04 5 -1 5 C-0.67 3.35 -0.34 1.7 0 0 Z " fill="#DDF5ED" transform="translate(58,15)"/>
<path d="M0 0 C0.66 0 1.32 0 2 0 C2.33 1.65 2.66 3.3 3 5 C4.98 5 6.96 5 9 5 C5.25 8.875 5.25 8.875 3 10 C3.99 10.66 4.98 11.32 6 12 C5.67 12.99 5.34 13.98 5 15 C4.34 14.34 3.68 13.68 3 13 C0.38419521 13.3269756 -1.64078137 13.82039068 -4 15 C-3.7525 14.0925 -3.505 13.185 -3.25 12.25 C-2.61740673 8.91162152 -2.61740673 8.91162152 -4.9375 6.625 C-5.618125 6.08875 -6.29875 5.5525 -7 5 C-5.02 5 -3.04 5 -1 5 C-0.67 3.35 -0.34 1.7 0 0 Z " fill="#DEF5ED" transform="translate(31,15)"/>
<path d="M0 0 C3.63 0.66 7.26 1.32 11 2 C12 7 12 7 11 9 C9.68 9 8.36 9 7 9 C6.67 9.66 6.34 10.32 6 11 C5.34 11 4.68 11 4 11 C4 10.34 4 9.68 4 9 C2.68 8.67 1.36 8.34 0 8 C-1.125 2.25 -1.125 2.25 0 0 Z " fill="#353535" transform="translate(211,20)"/>
<path d="M0 0 C0.66 0.33 1.32 0.66 2 1 C2 2.32 2 3.64 2 5 C4.31 5 6.62 5 9 5 C5.25 8.875 5.25 8.875 3 10 C3.66 10.33 4.32 10.66 5 11 C4.67 11.99 4.34 12.98 4 14 C3.236875 13.814375 2.47375 13.62875 1.6875 13.4375 C-1.08967375 12.77180827 -1.08967375 12.77180827 -4 14 C-3.67 12.02 -3.34 10.04 -3 8 C-4.32 7.34 -5.64 6.68 -7 6 C-7 5.67 -7 5.34 -7 5 C-5.02 5 -3.04 5 -1 5 C-0.67 3.35 -0.34 1.7 0 0 Z " fill="#E1F6EF" transform="translate(111,15)"/>
<path d="M0 0 C2 2 2 2 2 5 C3.98 5 5.96 5 8 5 C2.85714286 10.57142857 2.85714286 10.57142857 -1 11 C-1 11.66 -1 12.32 -1 13 C-1.99 13.33 -2.98 13.66 -4 14 C-3.9175 13.2575 -3.835 12.515 -3.75 11.75 C-4.07105184 8.21842973 -5.35265617 7.23369636 -8 5 C-6.576875 4.87625 -6.576875 4.87625 -5.125 4.75 C-1.89538209 4.34925077 -1.89538209 4.34925077 -0.625 1.9375 C-0.41875 1.298125 -0.2125 0.65875 0 0 Z " fill="#ECF8F4" transform="translate(138,15)"/>
<path d="M0 0 C3.53571429 0.53571429 3.53571429 0.53571429 5 2 C5.125 4.5 5.125 4.5 5 7 C4 8 4 8 1.5 8.125 C-1 8 -1 8 -2 7 C-2.1875 4.5625 -2.1875 4.5625 -2 2 C-1.34 1.34 -0.68 0.68 0 0 Z " fill="#7E7E7E" transform="translate(232,21)"/>
<path d="M0 0 C2.475 0.99 2.475 0.99 5 2 C5 4.97 5 7.94 5 11 C4.67 10.34 4.34 9.68 4 9 C1.97536745 8.34786708 1.97536745 8.34786708 0 8 C-1.125 2.25 -1.125 2.25 0 0 Z " fill="#C8C8C8" transform="translate(211,20)"/>
<path d="M0 0 C2.64 0 5.28 0 8 0 C8 0.66 8 1.32 8 2 C7.01 2 6.02 2 5 2 C5 4.64 5 7.28 5 10 C4.34 10 3.68 10 3 10 C3 7.36 3 4.72 3 2 C2.01 2 1.02 2 0 2 C0 1.34 0 0.68 0 0 Z " fill="#3E3E3E" transform="translate(183,19)"/>
<path d="M0 0 C0.433125 0.474375 0.86625 0.94875 1.3125 1.4375 C3.02309613 3.23686957 3.02309613 3.23686957 6 4 C6 4.66 6 5.32 6 6 C4.02 6.33 2.04 6.66 0 7 C0 4.69 0 2.38 0 0 Z " fill="#C7C7C7" transform="translate(202,22)"/>
<path d="M0 0 C0.66 0 1.32 0 2 0 C3.06546953 3.1964086 3.07427838 5.65747276 3 9 C2.01 8.67 1.02 8.34 0 8 C-1.125 2.25 -1.125 2.25 0 0 Z " fill="#454545" transform="translate(211,20)"/>
<path d="M0 0 C0.33 0.66 0.66 1.32 1 2 C1.66 2.33 2.32 2.66 3 3 C3 4.98 3 6.96 3 9 C2.01 9 1.02 9 0 9 C-1.125 2.25 -1.125 2.25 0 0 Z " fill="#3E3E3E" transform="translate(239,20)"/>
<path d="M0 0 C0.66 0.33 1.32 0.66 2 1 C1.67 1.61875 1.34 2.2375 1 2.875 C-0.14193235 4.91018344 -0.14193235 4.91018344 0 7 C-1.32 6.34 -2.64 5.68 -4 5 C-3 2 -3 2 0 0 Z " fill="#82DBBD" transform="translate(90,22)"/>
<path d="M0 0 C0.99 0 1.98 0 3 0 C2.67 1.65 2.34 3.3 2 5 C1.01 4.67 0.02 4.34 -1 4 C-0.67 2.68 -0.34 1.36 0 0 Z " fill="#EBEBEB" transform="translate(218,23)"/>
</svg>
